<svg width="16" height="17" viewBox="0 0 16 17" fill="none" xmlns="http://www.w3.org/2000/svg">
<path d="M10.0001 1.8335H4.00008C3.64646 1.8335 3.30732 1.97397 3.05727 2.22402C2.80722 2.47407 2.66675 2.81321 2.66675 3.16683V13.8335C2.66675 14.1871 2.80722 14.5263 3.05727 14.7763C3.30732 15.0264 3.64646 15.1668 4.00008 15.1668H12.0001C12.3537 15.1668 12.6928 15.0264 12.9429 14.7763C13.1929 14.5263 13.3334 14.1871 13.3334 13.8335V5.16683L10.0001 1.8335Z" stroke="#7200FF" stroke-width="1.33333" stroke-linecap="round" stroke-linejoin="round"/>
<path d="M9.33325 1.8335V4.50016C9.33325 4.85378 9.47373 5.19292 9.72378 5.44297C9.97383 5.69302 10.313 5.8335 10.6666 5.8335H13.3333" stroke="#7200FF" stroke-width="1.33333" stroke-linecap="round" stroke-linejoin="round"/>
<path d="M6.66659 6.5H5.33325" stroke="#7200FF" stroke-width="1.33333" stroke-linecap="round" stroke-linejoin="round"/>
<path d="M10.6666 9.1665H5.33325" stroke="#7200FF" stroke-width="1.33333" stroke-linecap="round" stroke-linejoin="round"/>
<path d="M10.6666 11.8335H5.33325" stroke="#7200FF" stroke-width="1.33333" stroke-linecap="round" stroke-linejoin="round"/>
</svg>
